<mxfile host="app.diagrams.net" modified="2022-08-28T03:03:14.408Z" agent="5.0 (Macintosh; Intel Mac OS X 10_15_7) AppleWebKit/537.36 (KHTML, like Gecko) Chrome/104.0.0.0 Safari/537.36" etag="DjrV4p2aEO0WW5i1wILZ" version="20.2.5" type="github">
  <diagram id="3228e29e-7158-1315-38df-8450db1d8a1d" name="Page-1">
    <mxGraphModel dx="1298" dy="148" grid="0" gridSize="10" guides="1" tooltips="1" connect="1" arrows="1" fold="1" page="1" pageScale="1" pageWidth="600" pageHeight="550" background="#EFF1F3" math="0" shadow="0">
      <root>
        <mxCell id="0" />
        <mxCell id="1" parent="0" />
        <mxCell id="T-5VQnCJckOgUX1Wp16H-28" value="客户端" style="text;html=1;strokeColor=none;fillColor=none;align=center;verticalAlign=middle;whiteSpace=wrap;rounded=0;fontSize=22;fontColor=#4A919B;" parent="1" vertex="1">
          <mxGeometry x="65" y="685" width="179" height="20" as="geometry" />
        </mxCell>
        <mxCell id="aH1-eks404bDhsACtXEq-3" value="服务端" style="text;html=1;strokeColor=none;fillColor=none;align=center;verticalAlign=middle;whiteSpace=wrap;rounded=0;fontSize=22;fontColor=#4A919B;" parent="1" vertex="1">
          <mxGeometry x="352" y="685" width="179" height="20" as="geometry" />
        </mxCell>
        <mxCell id="aH1-eks404bDhsACtXEq-7" value="" style="endArrow=none;html=1;strokeWidth=5;" parent="1" edge="1">
          <mxGeometry width="50" height="50" relative="1" as="geometry">
            <mxPoint x="158" y="1064" as="sourcePoint" />
            <mxPoint x="158" y="728" as="targetPoint" />
          </mxGeometry>
        </mxCell>
        <mxCell id="aH1-eks404bDhsACtXEq-10" value="" style="endArrow=classic;html=1;strokeWidth=5;fontSize=20;strokeColor=#4A919B;" parent="1" edge="1">
          <mxGeometry width="50" height="50" relative="1" as="geometry">
            <mxPoint x="177" y="775" as="sourcePoint" />
            <mxPoint x="433" y="790" as="targetPoint" />
          </mxGeometry>
        </mxCell>
        <mxCell id="aH1-eks404bDhsACtXEq-11" value="&lt;span style=&quot;font-size: 18px;&quot;&gt;&lt;font color=&quot;#4a919b&quot;&gt;Upgrade: Websocket&lt;/font&gt;&lt;/span&gt;" style="text;html=1;strokeColor=none;fillColor=none;align=center;verticalAlign=middle;whiteSpace=wrap;rounded=0;fontSize=20;" parent="1" vertex="1">
          <mxGeometry x="197" y="750" width="208" height="21" as="geometry" />
        </mxCell>
        <mxCell id="aH1-eks404bDhsACtXEq-12" value="" style="endArrow=none;html=1;strokeWidth=5;startArrow=classic;startFill=1;endFill=0;strokeColor=#4A919B;" parent="1" edge="1">
          <mxGeometry width="50" height="50" relative="1" as="geometry">
            <mxPoint x="169" y="877" as="sourcePoint" />
            <mxPoint x="427" y="810" as="targetPoint" />
          </mxGeometry>
        </mxCell>
        <mxCell id="aH1-eks404bDhsACtXEq-13" value="" style="endArrow=classic;html=1;strokeWidth=5;strokeColor=#535E80;" parent="1" edge="1">
          <mxGeometry width="50" height="50" relative="1" as="geometry">
            <mxPoint x="176" y="917" as="sourcePoint" />
            <mxPoint x="429" y="917" as="targetPoint" />
          </mxGeometry>
        </mxCell>
        <mxCell id="aH1-eks404bDhsACtXEq-18" value="&lt;font style=&quot;font-size: 15px;&quot;&gt;Websocket&lt;/font&gt;" style="rounded=1;whiteSpace=wrap;html=1;dashed=1;strokeWidth=3;fontColor=#FFFFFF;fillColor=#535E80;strokeColor=none;" parent="1" vertex="1">
          <mxGeometry x="458.41" y="801" width="89" height="253" as="geometry" />
        </mxCell>
        <mxCell id="aH1-eks404bDhsACtXEq-21" value="&lt;span style=&quot;font-size: 15px;&quot;&gt;Websocket&lt;/span&gt;" style="rounded=1;whiteSpace=wrap;html=1;dashed=1;strokeWidth=3;fillColor=#535E80;strokeColor=none;fontColor=#FFFFFF;" parent="1" vertex="1">
          <mxGeometry x="53" y="888" width="88" height="166" as="geometry" />
        </mxCell>
        <mxCell id="aH1-eks404bDhsACtXEq-22" value="&lt;font color=&quot;#4a919b&quot; style=&quot;font-size: 18px&quot;&gt;101 Switching Protocols&lt;/font&gt;" style="text;html=1;strokeColor=none;fillColor=none;align=center;verticalAlign=middle;whiteSpace=wrap;rounded=0;fontSize=20;rotation=-15;" parent="1" vertex="1">
          <mxGeometry x="147" y="809.5000000000001" width="269" height="32" as="geometry" />
        </mxCell>
        <mxCell id="aH1-eks404bDhsACtXEq-23" value="&lt;span style=&quot;font-size: 18px;&quot;&gt;&lt;font color=&quot;#535e80&quot;&gt;websocket格式数据&lt;/font&gt;&lt;/span&gt;" style="text;html=1;strokeColor=none;fillColor=none;align=center;verticalAlign=middle;whiteSpace=wrap;rounded=0;dashed=1;fontSize=20;rotation=0;" parent="1" vertex="1">
          <mxGeometry x="211" y="890" width="166" height="20" as="geometry" />
        </mxCell>
        <mxCell id="BaweCPi1VYB0Lv0gbQKf-3" value="&lt;font style=&quot;font-size: 15px;&quot;&gt;HTTP&lt;/font&gt;" style="rounded=1;whiteSpace=wrap;html=1;strokeColor=none;fillColor=#4A919B;fontColor=#FFFFFF;" parent="1" vertex="1">
          <mxGeometry x="53" y="725" width="90.59" height="152" as="geometry" />
        </mxCell>
        <mxCell id="BaweCPi1VYB0Lv0gbQKf-4" value="&lt;font style=&quot;font-size: 15px;&quot;&gt;HTTP&lt;/font&gt;" style="rounded=1;whiteSpace=wrap;html=1;strokeColor=none;fontColor=#FFFFFF;fillColor=#4A919B;" parent="1" vertex="1">
          <mxGeometry x="455.41" y="719" width="92" height="78" as="geometry" />
        </mxCell>
        <mxCell id="JQQ4GeZIg-afJDhbqjn4-2" value="" style="endArrow=none;html=1;strokeWidth=5;" parent="1" edge="1">
          <mxGeometry width="50" height="50" relative="1" as="geometry">
            <mxPoint x="442" y="1061" as="sourcePoint" />
            <mxPoint x="442" y="722.5" as="targetPoint" />
          </mxGeometry>
        </mxCell>
        <mxCell id="wwcipuS1lFu2ujMWKzss-1" value="" style="endArrow=none;html=1;strokeWidth=5;strokeColor=#535E80;startArrow=classic;startFill=1;endFill=0;" parent="1" edge="1">
          <mxGeometry width="50" height="50" relative="1" as="geometry">
            <mxPoint x="174.5" y="985" as="sourcePoint" />
            <mxPoint x="427.5" y="985" as="targetPoint" />
          </mxGeometry>
        </mxCell>
        <mxCell id="wwcipuS1lFu2ujMWKzss-2" value="&lt;span style=&quot;font-size: 18px;&quot;&gt;&lt;font color=&quot;#535e80&quot;&gt;websocket格式数据&lt;/font&gt;&lt;/span&gt;" style="text;html=1;strokeColor=none;fillColor=none;align=center;verticalAlign=middle;whiteSpace=wrap;rounded=0;dashed=1;fontSize=20;rotation=0;" parent="1" vertex="1">
          <mxGeometry x="211" y="958" width="166" height="20" as="geometry" />
        </mxCell>
        <mxCell id="wwcipuS1lFu2ujMWKzss-3" value="" style="endArrow=none;html=1;strokeWidth=5;strokeColor=#535E80;startArrow=classic;startFill=1;endFill=0;" parent="1" edge="1">
          <mxGeometry width="50" height="50" relative="1" as="geometry">
            <mxPoint x="174.5" y="1037" as="sourcePoint" />
            <mxPoint x="427.5" y="1037" as="targetPoint" />
          </mxGeometry>
        </mxCell>
        <mxCell id="wwcipuS1lFu2ujMWKzss-4" value="&lt;span style=&quot;font-size: 18px;&quot;&gt;&lt;font color=&quot;#535e80&quot;&gt;websocket格式数据&lt;/font&gt;&lt;/span&gt;" style="text;html=1;strokeColor=none;fillColor=none;align=center;verticalAlign=middle;whiteSpace=wrap;rounded=0;dashed=1;fontSize=20;rotation=0;" parent="1" vertex="1">
          <mxGeometry x="211" y="1010" width="166" height="20" as="geometry" />
        </mxCell>
        <mxCell id="wwcipuS1lFu2ujMWKzss-5" value="" style="shape=image;verticalLabelPosition=bottom;verticalAlign=top;imageAspect=0;aspect=fixed;image=data:image/svg+xml,PHN2ZyB4bWxuczp4bGluaz0iaHR0cDovL3d3dy53My5vcmcvMTk5OS94bGluayIgeG1sbnM9Imh0dHA6Ly93d3cudzMub3JnLzIwMDAvc3ZnIiBoZWlnaHQ9IjIwMCIgd2lkdGg9IjIwMCIgdmVyc2lvbj0iMS4xIiB2aWV3Qm94PSIwIDAgMTAyNCAxMDI0IiBjbGFzcz0iaWNvbiI+PGRlZnM+PHN0eWxlIHR5cGU9InRleHQvY3NzIj5AZm9udC1mYWNlIHsgZm9udC1mYW1pbHk6IGZlZWRiYWNrLWljb25mb250OyBzcmM6IHVybCgiLy9hdC5hbGljZG4uY29tL3QvZm9udF8xMDMxMTU4X3U2OXc4eWh4ZHUud29mZjI/dD0xNjMwMDMzNzU5OTQ0IikgZm9ybWF0KCJ3b2ZmMiIpLCB1cmwoIi8vYXQuYWxpY2RuLmNvbS90L2ZvbnRfMTAzMTE1OF91Njl3OHloeGR1LndvZmY/dD0xNjMwMDMzNzU5OTQ0IikgZm9ybWF0KCJ3b2ZmIiksIHVybCgiLy9hdC5hbGljZG4uY29tL3QvZm9udF8xMDMxMTU4X3U2OXc4eWh4ZHUudHRmP3Q9MTYzMDAzMzc1OTk0NCIpIGZvcm1hdCgidHJ1ZXR5cGUiKTsgfSYjeGE7PC9zdHlsZT48L2RlZnM+PHBhdGggZmlsbD0iIzRBOTE5QiIgZD0iTTg0Mi4zOTQ1OTUgNzk5LjczMzIzNyA2NDAuOTczMDc2IDc5OS43MzMyMzcgNjQwLjk3MzA3NiA5MTQuODI1NTA4bDU3LjU0OTAwNSAwYzE1LjkwMzg1MyAwIDI4Ljc3NDUwMyAxMi44NjkwOTkgMjguNzc0NTAzIDI4Ljc3MzMyNCAwIDE1LjkwMzIwMi0xMi44NzA2NDkgMjguNzcyMy0yOC43NzQ1MDMgMjguNzcyM0wzNTMuMjI4MDUgOTcyLjM3MTEzMmMtMTUuOTA0ODc3IDAtMjguNzc0NTAzLTEyLjg2OTA5OS0yOC43NzQ1MDMtMjguNzcyMyAwLTE1LjkwNDIyNSAxMi44Njk2MjYtMjguNzczMzI0IDI4Ljc3NDUwMy0yOC43NzMzMjRsNTcuNTQ5MDA1IDBMNDEwLjc3NzA1NSA3OTkuNzMzMjM3IDE4MC41ODEwMzQgNzk5LjczMzIzN2MtNjMuNTYyMTk5IDAtMTE1LjA5ODAxMS01MS41MzM3LTExNS4wOTgwMTEtMTE1LjA5MzI5NUw2NS40ODMwMjMgMTY2LjcyMDExNmMwLTYzLjU1OTU5NSA1MS41MzU4MTItMTE1LjA5MzI5NSAxMTUuMDk4MDExLTExNS4wOTMyOTVsNjYxLjgxMjUzNyAwYzYzLjU2MTE3NiAwIDExNS4wOTgwMTEgNTEuNTMzNyAxMTUuMDk4MDExIDExNS4wOTMyOTVsMCA1MTcuOTE5ODI2Qzk1Ny40OTE1ODIgNzQ4LjE5ODUxMyA5MDUuOTU1NzcgNzk5LjczMzIzNyA4NDIuMzk0NTk1IDc5OS43MzMyMzd6TTU4My40MjQwNzEgOTE0LjgyNTUwOCA1ODMuNDI0MDcxIDc5OS43MzMyMzcgNDY4LjMyNjA2IDc5OS43MzMyMzcgNDY4LjMyNjA2IDkxNC44MjU1MDggNTgzLjQyNDA3MSA5MTQuODI1NTA4ek04OTkuOTQyNTc3IDE2Ni43MjAxMTZjMC0zMS43Nzk3OTctMjUuNzY3OTA2LTU3LjU0NjY0Ny01Ny41NDc5ODItNTcuNTQ2NjQ3TDE4MC41ODEwMzQgMTA5LjE3MzQ2OGMtMzEuNzgxMDk5IDAtNTcuNTQ5MDA1IDI1Ljc2Njg1LTU3LjU0OTAwNSA1Ny41NDY2NDdsMCA0MDIuODI2NTMyTDg5OS45NDI1NzcgNTY5LjU0NjY0NyA4OTkuOTQyNTc3IDE2Ni43MjAxMTZ6TTg5OS45NDI1NzcgNjI3LjA5MzI5NSAxMjMuMDMzMDUyIDYyNy4wOTMyOTVsMCA1Ny41NDY2NDdjMCAzMS43Nzk3OTcgMjUuNzY3OTA2IDU3LjU0NTYyNCA1Ny41NDkwMDUgNTcuNTQ1NjI0bDY2MS44MTI1MzcgMGMzMS43ODEwOTkgMCA1Ny41NDc5ODItMjUuNzY2ODUgNTcuNTQ3OTgyLTU3LjU0NTYyNEw4OTkuOTQyNTc3IDYyNy4wOTMyOTV6Ii8+PC9zdmc+;fontSize=15;fontColor=#535E80;strokeColor=#535E80;" parent="1" vertex="1">
          <mxGeometry x="115" y="596" width="79" height="79" as="geometry" />
        </mxCell>
        <mxCell id="wwcipuS1lFu2ujMWKzss-6" value="" style="shape=image;verticalLabelPosition=bottom;verticalAlign=top;imageAspect=0;aspect=fixed;image=data:image/svg+xml,PHN2ZyB4bWxuczp4bGluaz0iaHR0cDovL3d3dy53My5vcmcvMTk5OS94bGluayIgeG1sbnM9Imh0dHA6Ly93d3cudzMub3JnLzIwMDAvc3ZnIiBoZWlnaHQ9IjIwMCIgd2lkdGg9IjIwMCIgdmVyc2lvbj0iMS4xIiB2aWV3Qm94PSIwIDAgMTAyNCAxMDI0IiBjbGFzcz0iaWNvbiI+PGRlZnM+PHN0eWxlIHR5cGU9InRleHQvY3NzIj5AZm9udC1mYWNlIHsgZm9udC1mYW1pbHk6IGZlZWRiYWNrLWljb25mb250OyBzcmM6IHVybCgiLy9hdC5hbGljZG4uY29tL3QvZm9udF8xMDMxMTU4X3U2OXc4eWh4ZHUud29mZjI/dD0xNjMwMDMzNzU5OTQ0IikgZm9ybWF0KCJ3b2ZmMiIpLCB1cmwoIi8vYXQuYWxpY2RuLmNvbS90L2ZvbnRfMTAzMTE1OF91Njl3OHloeGR1LndvZmY/dD0xNjMwMDMzNzU5OTQ0IikgZm9ybWF0KCJ3b2ZmIiksIHVybCgiLy9hdC5hbGljZG4uY29tL3QvZm9udF8xMDMxMTU4X3U2OXc4eWh4ZHUudHRmP3Q9MTYzMDAzMzc1OTk0NCIpIGZvcm1hdCgidHJ1ZXR5cGUiKTsgfSYjeGE7PC9zdHlsZT48L2RlZnM+PHBhdGggZmlsbD0iIzRBOTE5QiIgZD0iTTAgNzI4djEzNmMwIDM1LjMgMjguNyA2NCA2NCA2NGg4OTZjMzUuMyAwIDY0LTI4LjcgNjQtNjRWNzI4YzAtNC40LTMuNi04LTgtOEg4Yy00LjQgMC04IDMuNi04IDh6IG03NzQgOTZjMCA0LjQtMy42IDgtOCA4SDQyNGMtNC40IDAtOC0zLjYtOC04di00OGMwLTQuNCAzLjYtOCA4LThoMzQyYzQuNCAwIDggMy42IDggOHY0OHogbTEyMiAwYzAgNC40LTMuNiA4LTggOGgtNDhjLTQuNCAwLTgtMy42LTgtOHYtNDhjMC00LjQgMy42LTggOC04aDQ4YzQuNCAwIDggMy42IDggOHY0OHpNMCA1MzZ2MTQ0YzAgNC40IDMuNiA4IDggOGgxMDA4YzQuNCAwIDgtMy42IDgtOFY1MzZjMC00LjQtMy42LTgtOC04SDhjLTQuNCAwLTggMy42LTggOHogbTc3NCA5NmMwIDQuNC0zLjYgOC04IDhINDI0Yy00LjQgMC04LTMuNi04LTh2LTQ4YzAtNC40IDMuNi04IDgtOGgzNDJjNC40IDAgOCAzLjYgOCA4djQ4eiBtMTIyIDBjMCA0LjQtMy42IDgtOCA4aC00OGMtNC40IDAtOC0zLjYtOC04di00OGMwLTQuNCAzLjYtOCA4LThoNDhjNC40IDAgOCAzLjYgOCA4djQ4ek0wIDM0NHYxNDRjMCA0LjQgMy42IDggOCA4aDEwMDhjNC40IDAgOC0zLjYgOC04VjM0NGMwLTQuNC0zLjYtOC04LThIOGMtNC40IDAtOCAzLjYtOCA4eiBtNzc0IDk2YzAgNC40LTMuNiA4LTggOEg0MjRjLTQuNCAwLTgtMy42LTgtOHYtNDhjMC00LjQgMy42LTggOC04aDM0MmM0LjQgMCA4IDMuNiA4IDh2NDh6IG0xMjIgMGMwIDQuNC0zLjYgOC04IDhoLTQ4Yy00LjQgMC04LTMuNi04LTh2LTQ4YzAtNC40IDMuNi04IDgtOGg0OGM0LjQgMCA4IDMuNiA4IDh2NDh6TTk2MCA5Nkg2NGMtMzUuMyAwLTY0IDI4LjctNjQgNjR2MTM2YzAgNC40IDMuNiA4IDggOGgxMDA4YzQuNCAwIDgtMy42IDgtOFYxNjBjMC0zNS4zLTI4LjctNjQtNjQtNjR6TTc3NCAyNDhjMCA0LjQtMy42IDgtOCA4SDQyNGMtNC40IDAtOC0zLjYtOC04di00OGMwLTQuNCAzLjYtOCA4LThoMzQyYzQuNCAwIDggMy42IDggOHY0OHogbTEyMiAwYzAgNC40LTMuNiA4LTggOGgtNDhjLTQuNCAwLTgtMy42LTgtOHYtNDhjMC00LjQgMy42LTggOC04aDQ4YzQuNCAwIDggMy42IDggOHY0OHoiLz48L3N2Zz4=;fontSize=15;fontColor=#535E80;strokeColor=#535E80;" parent="1" vertex="1">
          <mxGeometry x="403.25" y="598.5" width="76.5" height="76.5" as="geometry" />
        </mxCell>
      </root>
    </mxGraphModel>
  </diagram>
</mxfile>
